<?xml version="1.0" encoding="UTF-8" standalone="no"?>
<!DOCTYPE svg PUBLIC "-//W3C//DTD SVG 1.1//EN" "http://www.w3.org/Graphics/SVG/1.1/DTD/svg11.dtd">
<svg width="100%" height="100%" viewBox="0 0 200 200" version="1.1" xmlns="http://www.w3.org/2000/svg" xmlns:xlink="http://www.w3.org/1999/xlink" xml:space="preserve" xmlns:serif="http://www.serif.com/" style="fill-rule:evenodd;clip-rule:evenodd;stroke-linejoin:round;stroke-miterlimit:2;">
    <g id="Ebene1" transform="matrix(2.32095,0,0,2.15149,-104.271,-95.6673)">
        <g transform="matrix(1,0,0,1,2,2)">
            <path d="M50.623,68.417L58.179,68.417L58.179,59.38L64.385,59.38L64.385,50.338L76.274,50.338L76.274,59.091L83.259,59.091L83.259,68.337L91.374,68.337L91.374,59.316L98.37,59.316L98.37,50.291L111.363,50.291L111.363,59.076L117.779,59.076L117.779,68.263L124.413,68.263L124.413,86.106L117.502,86.106L117.502,96.073L111.291,96.073L111.291,105.217L103.745,105.217L103.745,114.03L96.675,114.03L96.675,123.673L90.631,123.673L90.631,132.678L84.375,132.678L84.375,123.826L78.041,123.826L78.041,114.263L71.237,114.263L71.237,104.968L64.587,104.968L64.587,96.167L58.141,96.167L58.141,86.618L50.653,86.618L50.623,68.417Z" style="fill:rgb(30,0,0);"/>
        </g>
        <path d="M50.623,68.417L58.179,68.417L58.179,59.38L64.385,59.38L64.385,50.338L76.274,50.338L76.274,59.091L83.259,59.091L83.259,68.337L91.374,68.337L91.374,59.316L98.37,59.316L98.37,50.291L111.363,50.291L111.363,59.076L117.779,59.076L117.779,68.263L124.413,68.263L124.413,86.106L117.502,86.106L117.502,96.073L111.291,96.073L111.291,105.217L103.745,105.217L103.745,114.03L96.675,114.03L96.675,123.673L90.631,123.673L90.631,132.678L84.375,132.678L84.375,123.826L78.041,123.826L78.041,114.263L71.237,114.263L71.237,104.968L64.587,104.968L64.587,96.167L58.141,96.167L58.141,86.618L50.653,86.618L50.623,68.417Z" style="fill:rgb(208,57,118);"/>
        <path d="M98.959,63.782L98.959,71.777L105.749,71.777L105.749,81.792L112.022,81.792L112.022,63.645L98.959,63.782Z" style="fill:white;"/>
    </g>
</svg>
